<svg width="14" height="14" viewBox="0 0 14 14" fill="none" xmlns="http://www.w3.org/2000/svg">
<path d="M4.59967 10.3333L6.99967 7.93333L9.39968 10.3333L10.333 9.4L7.93301 7L10.333 4.6L9.39968 3.66666L6.99967 6.06666L4.59967 3.66666L3.66634 4.6L6.06634 7L3.66634 9.4L4.59967 10.3333ZM6.99967 13.6667C6.07745 13.6667 5.21079 13.4917 4.39967 13.1417C3.58856 12.7917 2.88301 12.3167 2.28301 11.7167C1.68301 11.1167 1.20801 10.4111 0.858008 9.6C0.508008 8.78888 0.333008 7.92222 0.333008 7C0.333008 6.07777 0.508008 5.21111 0.858008 4.39999C1.20801 3.58888 1.68301 2.88333 2.28301 2.28333C2.88301 1.68333 3.58856 1.20833 4.39967 0.858328C5.21079 0.508328 6.07745 0.333328 6.99967 0.333328C7.9219 0.333328 8.78856 0.508328 9.59968 0.858328C10.4108 1.20833 11.1163 1.68333 11.7163 2.28333C12.3163 2.88333 12.7913 3.58888 13.1413 4.39999C13.4913 5.21111 13.6663 6.07777 13.6663 7C13.6663 7.92222 13.4913 8.78888 13.1413 9.6C12.7913 10.4111 12.3163 11.1167 11.7163 11.7167C11.1163 12.3167 10.4108 12.7917 9.59968 13.1417C8.78856 13.4917 7.9219 13.6667 6.99967 13.6667ZM6.99967 12.3333C8.48856 12.3333 9.74967 11.8167 10.783 10.7833C11.8163 9.75 12.333 8.48888 12.333 7C12.333 5.51111 11.8163 4.25 10.783 3.21666C9.74967 2.18333 8.48856 1.66666 6.99967 1.66666C5.51079 1.66666 4.24967 2.18333 3.21634 3.21666C2.18301 4.25 1.66634 5.51111 1.66634 7C1.66634 8.48888 2.18301 9.75 3.21634 10.7833C4.24967 11.8167 5.51079 12.3333 6.99967 12.3333Z" fill="white"/>
</svg>
