<svg width="24" height="24" viewBox="0 0 24 24" fill="none" xmlns="http://www.w3.org/2000/svg">
<path d="M12.3438 10.625L7.25 7.03125C7 7.1875 6.71875 7.28125 6.40625 7.28125C5.5 7.28125 4.78125 6.5625 4.78125 5.65625C4.78125 4.75 5.5 4 6.40625 4C7.3125 4 8.03125 4.75 8.03125 5.65625C8.03125 5.78125 8.03125 5.9375 7.96875 6.0625C9.59375 7.3125 12.4062 9.3125 13.25 9.96875C13.6562 9.75 14.125 9.625 14.5938 9.5625V7.625C14.0312 7.40625 13.7188 6.90625 13.7188 6.3125C13.7188 5.46875 14.3438 4.8125 15.1562 4.8125C16 4.8125 16.625 5.46875 16.625 6.3125C16.625 6.90625 16.3125 7.40625 15.75 7.625V9.5625C17.7188 9.875 19.1875 11.5625 19.1875 13.5938C19.1875 15.8438 17.375 17.6562 15.125 17.6562C14.2188 17.6562 13.3438 17.3438 12.6562 16.8125L11.0938 18.375C11.125 18.5 11.1562 18.625 11.1562 18.75C11.1562 19.0938 11.0312 19.4062 10.7812 19.6562C10.5625 19.9062 10.2188 20 9.90625 20C9.5625 20 9.25 19.875 9 19.6562C8.78125 19.4062 8.625 19.0938 8.625 18.75C8.625 18.4375 8.78125 18.0938 9 17.875C9.25 17.625 9.5625 17.5 9.90625 17.5C10.0625 17.5 10.1875 17.5312 10.3438 17.5625L11.875 16.0312C11.375 15.3438 11.0625 14.5 11.0625 13.5938C11.0625 12.4062 11.5625 11.375 12.3438 10.625ZM15.125 15.75C16.3438 15.75 17.2812 14.7812 17.2812 13.5938C17.2812 12.4062 16.3438 11.4375 15.125 11.4375C13.9375 11.4375 12.9688 12.4062 12.9688 13.5938C12.9688 14.7812 13.9375 15.75 15.125 15.75Z" fill="#0364A2"/>
</svg>
