<svg width="12" height="12" viewBox="0 0 12 12" fill="none" xmlns="http://www.w3.org/2000/svg">
<path d="M2.70961 3.94609H0.202148V11.9422H2.70961V3.94609Z" fill="#0F7DFF"/>
<path d="M9.49276 3.77275C9.40032 3.76119 9.3021 3.75542 9.20388 3.74964C7.79994 3.69186 7.00842 4.52383 6.73109 4.88204C6.65599 4.98026 6.62132 5.03803 6.62132 5.03803V3.96919H4.22363V11.9653H6.62132H6.73109C6.73109 11.1507 6.73109 10.3418 6.73109 9.5272C6.73109 9.0881 6.73109 8.64901 6.73109 8.20991C6.73109 7.66682 6.69065 7.08907 6.9622 6.5922C7.1933 6.17621 7.60928 5.96822 8.07726 5.96822C9.46387 5.96822 9.49276 7.22195 9.49276 7.3375C9.49276 7.34328 9.49276 7.34906 9.49276 7.34906V12H12.0002V6.78286C12.0002 4.99759 11.0931 3.94608 9.49276 3.77275Z" fill="#0F7DFF"/>
<path d="M1.45594 2.9119C2.26004 2.9119 2.91189 2.26005 2.91189 1.45596C2.91189 0.65186 2.26004 1.14441e-05 1.45594 1.14441e-05C0.651846 1.14441e-05 0 0.65186 0 1.45596C0 2.26005 0.651846 2.9119 1.45594 2.9119Z" fill="#0F7DFF"/>
</svg>
