<svg width="24" height="24" viewBox="0 0 24 24" fill="none" xmlns="http://www.w3.org/2000/svg">
<mask id="mask0_2162_13982" style="mask-type:alpha" maskUnits="userSpaceOnUse" x="0" y="0" width="24" height="24">
<rect width="24" height="24" fill="#D9D9D9"/>
</mask>
<g mask="url(#mask0_2162_13982)">
<path d="M2.5 18.4808V16.9808H12.2788V18.4808H2.5ZM2.5 13.5865V12.0865H7.23075V13.5865H2.5ZM2.5 8.69225V7.19225H7.23075V8.69225H2.5ZM20.4462 18.5L16.577 14.6595C16.1962 14.9365 15.7811 15.1474 15.3318 15.2923C14.8824 15.4371 14.4257 15.5095 13.9615 15.5095C12.7085 15.5095 11.6405 15.0718 10.7575 14.1963C9.87433 13.3206 9.43275 12.2568 9.43275 11.0048C9.43275 9.75292 9.8745 8.68917 10.758 7.8135C11.6417 6.93783 12.7102 6.5 13.9637 6.5C15.2174 6.5 16.2853 6.93783 17.1673 7.8135C18.0493 8.68917 18.4902 9.75133 18.4902 11C18.4902 11.4642 18.4178 11.9209 18.273 12.3703C18.1282 12.8196 17.9141 13.2314 17.6307 13.6058L21.5 17.4462L20.4462 18.5ZM13.9615 14.0095C14.8028 14.0095 15.518 13.7178 16.107 13.1345C16.696 12.5512 16.9905 11.8413 16.9905 11.0048C16.9905 10.1683 16.696 9.45833 16.107 8.875C15.518 8.29167 14.8028 8 13.9615 8C13.1202 8 12.405 8.29167 11.816 8.875C11.2272 9.45833 10.9327 10.1683 10.9327 11.0048C10.9327 11.8413 11.2272 12.5512 11.816 13.1345C12.405 13.7178 13.1202 14.0095 13.9615 14.0095Z" fill="current"/>
</g>
</svg>

