<svg width="24" height="24" viewBox="0 0 24 24" fill="none" xmlns="http://www.w3.org/2000/svg">
<path d="M9.75 11.6875H8.9375C8.96875 11.5312 9.03125 11.25 9.375 11.25C9.5625 11.25 9.75 11.375 9.75 11.6875ZM14.0312 11.25C14.0625 11.25 14.4688 11.1875 14.4688 11.875C14.4688 12.0938 14.4375 12.5 14.0312 12.5C14.0312 12.5 13.5938 12.5625 13.5938 11.875C13.5938 11.1875 14.0312 11.25 14.0312 11.25ZM6.4375 12C6.5625 11.875 6.90625 11.9062 7.09375 11.9375V12.4688C6.90625 12.5 6.59375 12.5625 6.4375 12.4375C6.40625 12.4062 6.34375 12.375 6.34375 12.2188C6.34375 12.125 6.375 12.0625 6.4375 12ZM22 11.25C22 14 19.5 16.0938 16.8125 15.5312C16.25 16.5625 14.5938 17.75 12.6875 16.8438C11.4062 19.8438 7.125 19.7188 6 16.6562C2.25 17.4062 0.40625 12.3438 3.65625 10.4375C2.5625 7.96875 4.375 5 7.21875 5C8.46875 5.03125 9.59375 5.625 10.3125 6.53125C10.9375 5.875 11.8438 5.4375 12.8438 5.4375C14.1562 5.4375 15.3125 6.1875 15.9375 7.28125C18.8438 6 22 8.15625 22 11.25ZM5.75 12.25C5.75 11.9062 5.375 11.7812 5.1875 11.7188C5.03125 11.6562 4.78125 11.625 4.78125 11.4375C4.78125 11.1562 5.3125 11.25 5.5625 11.375C5.5625 11.375 5.59375 11.4062 5.59375 11.375C5.625 11.3438 5.6875 11.1562 5.6875 11.125C5.6875 11.0938 5.6875 11.0938 5.65625 11.0938C5.28125 10.8438 4.40625 10.8125 4.40625 11.5C4.40625 11.875 4.75 11.9688 4.96875 12.0312C5.09375 12.0625 5.375 12.125 5.375 12.2812C5.375 12.4062 5.25 12.5312 5.09375 12.5312C4.84375 12.5312 4.65625 12.4375 4.5 12.3125C4.46875 12.3125 4.4375 12.2812 4.4375 12.3438L4.375 12.5625C4.34375 12.5938 4.375 12.625 4.375 12.625C4.40625 12.6562 4.6875 12.8125 5.09375 12.8125C5.5 12.8125 5.75 12.5938 5.75 12.25ZM6.75 10.9375C6.4375 10.9375 6.15625 11.0312 6.09375 11.0938C6.0625 11.0938 6.0625 11.0938 6.0625 11.125L6.15625 11.3438C6.15625 11.375 6.15625 11.375 6.1875 11.375C6.21875 11.375 6.40625 11.25 6.71875 11.25C6.84375 11.25 6.9375 11.2812 7 11.3125C7.125 11.4062 7.09375 11.5938 7.09375 11.6562C6.9375 11.6562 6.5 11.5625 6.1875 11.7812C6.03125 11.875 5.9375 12.0312 5.9375 12.2188C5.9375 12.2188 5.9375 12.2188 5.96875 12.2188C5.96875 12.4062 6 12.5625 6.15625 12.6875C6.53125 12.9375 7.28125 12.75 7.34375 12.7188C7.40625 12.7188 7.46875 12.6875 7.46875 12.6562V11.5938C7.46875 11.4688 7.46875 10.9375 6.75 10.9375ZM8.21875 10.2812C8.21875 10.25 8.1875 10.25 8.15625 10.25H7.875C7.84375 10.25 7.84375 10.25 7.84375 10.25C7.84375 10.25 7.8125 10.25 7.8125 10.2812V12.75L7.84375 12.7812C7.84375 12.7812 7.84375 12.7812 7.875 12.7812H8.15625C8.1875 12.7812 8.21875 12.75 8.21875 12.75V10.2812ZM9.9375 11.1875C9.875 11.0938 9.71875 10.9375 9.40625 10.9375C9.28125 10.9375 8.9375 10.9375 8.75 11.2188C8.5625 11.4688 8.53125 11.7812 8.53125 11.875C8.53125 12 8.53125 12.3438 8.75 12.5625C8.84375 12.6562 9.03125 12.8125 9.46875 12.8125C9.8125 12.8125 10 12.75 10.0625 12.6875C10.0625 12.6875 10.0625 12.6562 10.0625 12.625L10 12.4062C9.96875 12.4062 9.96875 12.4062 9.96875 12.4062C9.9375 12.4062 9.9375 12.4062 9.9375 12.4062C9.875 12.4375 9.75 12.5 9.46875 12.5C8.9375 12.5 8.9375 12.0312 8.9375 11.9688H10.0938C10.125 11.9688 10.125 11.9375 10.125 11.9375C10.125 11.9375 10.1875 11.4688 9.9375 11.1875ZM11.0938 12.8125C11.5 12.8125 11.75 12.5938 11.75 12.25C11.75 11.875 11.4062 11.7812 11.1875 11.7188C11.0625 11.6562 10.7812 11.625 10.7812 11.4375C10.7812 11.3125 10.875 11.25 11.0625 11.25C11.25 11.25 11.4062 11.2812 11.5625 11.375C11.7188 11.4688 11.5938 11.4062 11.625 11.375C11.625 11.3438 11.6875 11.1562 11.6875 11.125H11.7188C11.7188 11.0938 11.6875 11.0938 11.6875 11.0938C11.4375 10.9375 11.1562 10.9375 11.0625 10.9375C10.6875 10.9375 10.4062 11.1562 10.4062 11.5C10.4062 11.875 10.7812 11.9688 10.9688 12.0312C11.1562 12.0938 11.375 12.125 11.375 12.2812C11.375 12.4062 11.2812 12.5 11.0938 12.5C10.875 12.5 10.6562 12.4375 10.5 12.3125C10.5 12.3125 10.5 12.3125 10.4688 12.3125C10.4688 12.3125 10.4375 12.3125 10.4375 12.3438L10.375 12.5625C10.3438 12.5938 10.375 12.625 10.375 12.625C10.4375 12.6562 10.7188 12.8125 11.0938 12.8125ZM13.1562 11C13.1562 11 13.125 10.9688 13.0938 10.9688H12.75C12.75 10.9688 12.7812 10.6875 12.875 10.5938C13 10.4688 13.25 10.5312 13.25 10.5312C13.2812 10.5625 13.3125 10.5312 13.3125 10.5312L13.4062 10.2812C13.4062 10.25 13.4062 10.25 13.375 10.25C13.2188 10.1875 12.8438 10.1562 12.625 10.375C12.4375 10.5312 12.4062 10.8125 12.375 10.9688H12.0938L12.0625 11L12.0312 11.25C12.0312 11.2812 12.0312 11.2812 12.0625 11.2812H12.3125C12.0625 12.7812 12.0312 12.875 12 13.0312C11.9688 13.1562 11.9062 13.25 11.8125 13.2812C11.8125 13.2812 11.6875 13.3125 11.5 13.25C11.5 13.25 11.4688 13.25 11.4688 13.2812C11.4688 13.3125 11.375 13.5 11.375 13.5312C11.375 13.5312 11.375 13.5625 11.4062 13.5625C11.5625 13.625 11.8125 13.625 11.9375 13.5625C12.1562 13.5 12.25 13.3125 12.3125 13.1562C12.4062 12.9062 12.4062 12.8438 12.6875 11.2812H13.0625C13.0938 11.2812 13.0938 11.2812 13.0938 11.25L13.1562 11ZM14.8125 11.5C14.7812 11.4688 14.6562 10.9375 14.0312 10.9375C13.5625 10.9375 13.3125 11.25 13.25 11.5C13.2188 11.5938 13.125 11.9375 13.25 12.25C13.25 12.25 13.375 12.8125 14.0312 12.8125C14.5 12.8125 14.75 12.5312 14.8125 12.25C14.9062 11.9375 14.8438 11.5938 14.8125 11.5ZM16.2188 11C16.0625 10.9375 15.7188 10.9375 15.5312 11.1562V11.0312C15.5312 11 15.5312 11 15.5 11H15.2188C15.1875 11 15.1875 11 15.1875 11.0312V12.75C15.1875 12.7812 15.1875 12.7812 15.2188 12.7812H15.5C15.5312 12.7812 15.5625 12.7812 15.5625 12.75V11.875C15.5625 11.7812 15.5625 11.5312 15.6875 11.4062C15.8438 11.25 16.0625 11.3125 16.0938 11.3125C16.125 11.3125 16.1562 11.3125 16.1562 11.2812C16.1875 11.2188 16.2188 11.125 16.25 11.0312C16.25 11 16.25 11 16.2188 11ZM17.6875 12.6875L17.625 12.4688C17.625 12.4062 17.5938 12.4375 17.5938 12.4375C17.4375 12.5 17.2812 12.5 17.2188 12.5C17.0938 12.5 16.6875 12.4688 16.6875 11.875C16.6875 11.6875 16.75 11.25 17.2188 11.25C17.2188 11.25 17.2188 11.25 17.25 11.25C17.3438 11.25 17.4688 11.2812 17.5625 11.3125C17.6875 11.3438 17.5938 11.3125 17.5938 11.2812C17.625 11.2188 17.6562 11.1562 17.6875 11.0625C17.6875 11.0312 17.6562 11.0312 17.6562 11.0312C17.3125 10.9062 16.9688 10.9375 16.7812 11.0312C16.75 11.0312 16.2812 11.2188 16.2812 11.875C16.2812 11.9688 16.2812 12.8125 17.1875 12.8125C17.375 12.8125 17.5312 12.7812 17.6875 12.7188C17.6875 12.7188 17.6875 12.7188 17.6875 12.6875ZM19.375 11.4375C19.3438 11.3438 19.2188 10.9375 18.6875 10.9375C18.1875 10.9375 17.9375 11.25 17.875 11.5312C17.8438 11.625 17.8125 11.75 17.8125 11.875C17.8125 12.6875 18.4062 12.8125 18.75 12.8125C19.0938 12.8125 19.2812 12.75 19.3438 12.6875C19.3438 12.6875 19.375 12.6562 19.3438 12.625L19.2812 12.4062H19.25H19.2188C19.1562 12.4375 19.0312 12.5 18.75 12.5C18.2188 12.5 18.2188 12.0312 18.2188 11.9688H19.375C19.4062 11.9688 19.4062 11.9375 19.4062 11.9375C19.4062 11.9375 19.4375 11.7188 19.375 11.4375ZM18.6562 11.25C18.8125 11.25 19.0312 11.3125 19.0625 11.6875H18.2188C18.25 11.5312 18.3125 11.25 18.6562 11.25Z" fill="#0364A2"/>
</svg>
